<svg height="512pt" viewBox="-76 0 512 512" width="512pt" xmlns="http://www.w3.org/2000/svg"><path d="m330 181h-90v-181h60l30 31zm0 0" fill="#bbdcff"/><path d="m360 0-.601562 169.601562-29.398438 118.199219v73.199219l-15 15.597656 15 14.402344v30l-15 19.5 15 10.5v61h-60v-61l15-12-15-18v-30l15-15-15-15v-78.601562l30-118.199219v-164.199219zm0 0" fill="#76e2f8"/><path d="m60 0h120v76h-120zm0 0" fill="#e0f4ff"/><path d="m120 0h60v76h-60zm0 0" fill="#bbdcff"/><path d="m210 121-84.300781 30-5.699219-1.800781-90-28.199219 30-60h120zm0 0" fill="#76e2f8"/><path d="m125.699219 151-5.699219-1.800781v-88.199219h60l30 60zm0 0" fill="#15ccea"/><path d="m240 451v61h-240v-61l30-30h176.101562zm0 0" fill="#76e2f8"/><path d="m240 451v61h-120v-91h86.101562zm0 0" fill="#15ccea"/><path d="m240 451h-240l30-330h180zm0 0" fill="#e0f4ff"/><path d="m240 451h-120v-330h90zm0 0" fill="#bbdcff"/><path d="m120 211c-25.5 0-45 32.101562-45 75s19.5 75 45 75 45-32.101562 45-75-19.5-75-45-75zm0 0" fill="#76e2f8"/><path d="m120 361v-150c25.5 0 45 32.101562 45 75s-19.5 75-45 75zm0 0" fill="#15ccea"/><path d="m360 0-.601562 169.601562-29.398438 118.199219v73.199219l-15 15.597656 15 14.402344v30l-15 19.5 15 10.5v61h-30v-229.601562l30-118.199219v-164.199219zm0 0" fill="#15ccea"/><path d="m270 361h60v30h-60zm0 0" fill="#9bfcff"/><path d="m270 421h60v30h-60zm0 0" fill="#9bfcff"/><g fill="#76e2f8"><path d="m300 361h30v30h-30zm0 0"/><path d="m300 421h30v30h-30zm0 0"/></g></svg>