<svg height="512pt" viewBox="0 -100 512 512" width="512pt" xmlns="http://www.w3.org/2000/svg"><path d="m512 156c0 86.007812-69.980469 155.988281-156 155.988281-86.007812 0-155.988281-69.980469-155.988281-155.988281 0-86.019531 69.980469-156 155.988281-156 86.019531 0 156 69.980469 156 156zm0 0" fill="#ff7a53"/><path d="m512 156c0 86.007812-69.980469 155.988281-156 155.988281v-311.988281c86.019531 0 156 69.980469 156 156zm0 0" fill="#ff3b62"/><path d="m411.988281 156c0 86.007812-69.972656 155.988281-156 155.988281h-.601562c-85.738281-.332031-155.378907-70.179687-155.378907-155.988281 0-85.820312 69.640626-155.671875 155.378907-156h.601562c86.027344 0 156 69.980469 156 156zm0 0" fill="#ff9577"/><path d="m411.988281 156c0 86.007812-69.972656 155.988281-156 155.988281h-.601562v-311.988281h.601562c86.027344 0 156 69.980469 156 156zm0 0" fill="#ff738e"/><path d="m311.988281 156c0 86.007812-69.980469 155.988281-156 155.988281-86.007812 0-155.988281-69.980469-155.988281-155.988281 0-86.019531 69.980469-156 155.988281-156 86.019531 0 156 69.980469 156 156zm0 0" fill="#ff7a53"/><path d="m219.898438 100.339844c0 21.308594-17.28125 38.589844-38.589844 38.589844-9.679688 0-18.53125-3.570313-25.320313-9.460938-8.128906-7.078125-13.269531-17.507812-13.269531-29.128906s5.140625-22.050782 13.269531-29.128906c6.789063-5.890626 15.640625-9.460938 25.320313-9.460938 21.308594 0 38.589844 17.28125 38.589844 38.589844zm0 0" fill="#ffdba9"/><path d="m186.46875 238.359375c0 16.828125-13.640625 30.480469-30.480469 30.480469-16.828125 0-30.46875-13.652344-30.46875-30.480469 0-16.832031 13.640625-30.472656 30.46875-30.472656 16.839844 0 30.480469 13.640625 30.480469 30.472656zm0 0" fill="#ffdba9"/><path d="m224.175781 156.523438h30.933594v30.933593h-30.933594zm0 0" fill="#c06100"/><path d="m74.84375 84.871094h30.933594v30.933594h-30.933594zm0 0" fill="#ffdba9"/><path d="m46.296875 171.992188h30.9375v30.933593h-30.9375zm0 0" fill="#ffdba9"/><path d="m311.988281 156c0 86.007812-69.980469 155.988281-156 155.988281v-311.988281c86.019531 0 156 69.980469 156 156zm0 0" fill="#ff3b62"/><g fill="#ffbdad"><path d="m186.46875 238.359375c0 16.828125-13.640625 30.480469-30.480469 30.480469v-60.953125c16.839844 0 30.480469 13.640625 30.480469 30.472656zm0 0"/><path d="m219.898438 100.339844c0 21.308594-17.28125 38.589844-38.589844 38.589844-9.679688 0-18.53125-3.570313-25.320313-9.460938v-58.257812c6.789063-5.890626 15.640625-9.460938 25.320313-9.460938 21.308594 0 38.589844 17.28125 38.589844 38.589844zm0 0"/></g></svg>