<svg xmlns="http://www.w3.org/2000/svg" xmlns:xlink="http://www.w3.org/1999/xlink" width="249.751" height="231.564" viewBox="0 0 249.751 231.564">
  <defs>
    <filter id="Union_1" x="0" y="0" width="249.751" height="231.564" filterUnits="userSpaceOnUse">
      <feOffset dx="5" dy="5" input="SourceAlpha"/>
      <feGaussianBlur stdDeviation="3" result="blur"/>
      <feFlood flood-opacity="0.161"/>
      <feComposite operator="in" in2="blur"/>
      <feComposite in="SourceGraphic"/>
    </filter>
    <filter id="Union_3" x="102.444" y="70.58" width="75.131" height="104.57" filterUnits="userSpaceOnUse">
      <feOffset dx="5" dy="5" input="SourceAlpha"/>
      <feGaussianBlur stdDeviation="2.5" result="blur-2"/>
      <feFlood flood-opacity="0.161"/>
      <feComposite operator="in" in2="blur-2"/>
      <feComposite in="SourceGraphic"/>
    </filter>
  </defs>
  <g id="Big" transform="translate(-52 -421.435)">
    <g transform="matrix(1, 0, 0, 1, 52, 421.44)" filter="url(#Union_1)">
      <g id="Union_1-2" data-name="Union 1" transform="translate(7 7.67)" fill="#fff">
        <path d="M 151.3981170654297 208.3900146484375 C 149.1884613037109 208.3900146484375 147.0441436767578 207.9569244384766 145.0247039794922 207.1027984619141 C 143.0749053955078 206.2781219482422 141.3241119384766 205.0978240966797 139.8209991455078 203.5947113037109 C 138.3178405761719 202.0915985107422 137.1375579833984 200.3408050537109 136.3128814697266 198.3910064697266 C 135.4587249755859 196.3715667724609 135.025634765625 194.2272491455078 135.025634765625 192.0175933837891 C 135.025634765625 191.370849609375 135.0635528564453 190.7252807617188 135.1388702392578 190.0853881835938 L 95.19998168945313 190.0853881835938 C 95.27527618408203 190.7252044677734 95.31320190429688 191.370849609375 95.31320190429688 192.0175933837891 C 95.31320190429688 194.2272491455078 94.88011169433594 196.3715667724609 94.02599334716797 198.3910064697266 C 93.20128631591797 200.3408050537109 92.02099609375 202.0915985107422 90.51787567138672 203.5947113037109 C 89.01475524902344 205.0978240966797 87.26399230957031 206.2781219482422 85.31417083740234 207.1027984619141 C 83.29473114013672 207.9569244384766 81.15043640136719 208.3900146484375 78.94078826904297 208.3900146484375 C 76.73114013671875 208.3900146484375 74.58678436279297 207.9569244384766 72.56728363037109 207.1027984619141 C 70.61740112304688 206.2781219482422 68.86655426025391 205.0978240966797 67.36334228515625 203.5947418212891 C 65.860107421875 202.0916290283203 64.67972564697266 200.3408355712891 63.8549919128418 198.3910369873047 C 63.00075531005859 196.3715667724609 62.5676383972168 194.2272491455078 62.5676383972168 192.0175933837891 C 62.5676383972168 186.8819122314453 64.95577239990234 182.0930480957031 69.00724029541016 179.0008239746094 L 24.5638599395752 13.13589000701904 L -7.518095117120538e-06 13.13589000701904 L -1.500007510185242 13.13589000701904 L -1.500007510185242 11.63589000701904 L -1.500007510185242 0.1949484944343567 L -1.500007510185242 -1.305051445960999 L -7.518095117120538e-06 -1.305051445960999 L 33.51655197143555 -1.305051445960999 L 34.05328750610352 -1.448875069618225 L 35.50217056274414 -1.83713972568512 L 35.89040374755859 -0.3882279694080353 L 50.97241973876953 55.89886093139648 L 78.34220123291016 55.89886093139648 L 225.0003967285156 55.89886093139648 L 226.8757019042969 55.89886093139648 L 226.4637603759766 57.72835922241211 L 201.5953674316406 168.1726837158203 L 201.3318176269531 169.3431854248047 L 200.1320190429688 169.3431854248047 L 81.36965179443359 169.3431854248047 L 83.05806732177734 175.6444549560547 L 151.7797546386719 175.6444549560547 L 153.2797546386719 175.6444549560547 L 153.2797546386719 175.7512512207031 C 157.0090942382813 176.1767730712891 160.4577331542969 177.8606872558594 163.1125793457031 180.5791778564453 C 166.1167297363281 183.6553344726563 167.7711944580078 187.7175598144531 167.7711944580078 192.0175933837891 C 167.7711944580078 194.2272491455078 167.3380737304688 196.3715667724609 166.4838409423828 198.3910369873047 C 165.6591033935547 200.3408355712891 164.4787292480469 202.0915985107422 162.9755249023438 203.5947418212891 C 161.4723205566406 205.0978240966797 159.7214660644531 206.2781219482422 157.7715759277344 207.1027984619141 C 155.7520751953125 207.9569244384766 153.6077270507813 208.3900146484375 151.3981170654297 208.3900146484375 Z" stroke="none"/>
        <path d="M 151.3981018066406 206.8900146484375 C 159.6120452880859 206.8900146484375 166.2711944580078 200.2315673828125 166.2711944580078 192.0175628662109 C 166.2711944580078 183.9314727783203 159.8170166015625 177.3520965576172 151.7797546386719 177.1492919921875 L 151.7797546386719 177.1444396972656 L 81.90707397460938 177.1444396972656 L 79.414794921875 167.8431701660156 L 200.1320037841797 167.8431701660156 L 225.0003814697266 57.39884948730469 L 78.34220123291016 57.39884948730469 L 49.82144927978516 57.39884948730469 L 34.44150924682617 7.324218586290954e-06 L 33.71401214599609 0.194944828748703 L 1.08642580016749e-05 0.194944828748703 L 1.08642580016749e-05 11.63588237762451 L 25.7148551940918 11.63588237762451 L 70.72541809082031 179.6175689697266 C 66.7130126953125 182.2813873291016 64.06763458251953 186.8407592773438 64.06763458251953 192.0175628662109 C 64.06763458251953 200.2315673828125 70.72682189941406 206.8900146484375 78.94075775146484 206.8900146484375 C 87.15473175048828 206.8900146484375 93.81320190429688 200.2315673828125 93.81320190429688 192.0175628662109 C 93.81320190429688 190.8364410400391 93.67538452148438 189.6870727539063 93.41519927978516 188.5853881835938 L 136.9236297607422 188.5853881835938 C 136.6634521484375 189.6870727539063 136.525634765625 190.8364410400391 136.525634765625 192.0175628662109 C 136.525634765625 200.2315673828125 143.1841430664063 206.8900146484375 151.3981018066406 206.8900146484375 M 151.3981018066406 209.8900146484375 C 148.9866333007813 209.8900146484375 146.6457366943359 209.4170684814453 144.4403839111328 208.4843139648438 C 142.311767578125 207.5840148925781 140.4007263183594 206.2957611083984 138.7603302001953 204.6553497314453 C 137.1199188232422 203.0149688720703 135.8316650390625 201.1039123535156 134.9313507080078 198.9753265380859 C 133.9985809326172 196.7699737548828 133.525634765625 194.4290313720703 133.525634765625 192.0175628662109 C 133.525634765625 191.8734893798828 133.5273742675781 191.7293243408203 133.5308074951172 191.5853881835938 L 96.80802154541016 191.5853881835938 C 96.81147003173828 191.7293243408203 96.81320190429688 191.8734893798828 96.81320190429688 192.0175628662109 C 96.81320190429688 194.4290313720703 96.34026336669922 196.7699737548828 95.40747833251953 198.9753265380859 C 94.50716400146484 201.1039123535156 93.21894836425781 203.0149688720703 91.57854461669922 204.6553497314453 C 89.93813323974609 206.2957611083984 88.02710723876953 207.5840148925781 85.89848327636719 208.4843139648438 C 83.69313812255859 209.4170684814453 81.35222625732422 209.8900146484375 78.94075775146484 209.8900146484375 C 76.52928924560547 209.8900146484375 74.1883544921875 209.4170684814453 71.98297882080078 208.4843139648438 C 69.85432434082031 207.5840148925781 67.94319915771484 206.2957916259766 66.30272674560547 204.6554412841797 C 64.66220092773438 203.0150451660156 63.37388610839844 201.1039733886719 62.47348022460938 198.9753875732422 C 61.54063415527344 196.7700042724609 61.06763458251953 194.4290771484375 61.06763458251953 192.0175628662109 C 61.06763458251953 186.7541656494141 63.36561584472656 181.8243408203125 67.30622863769531 178.4481353759766 L 23.41286659240723 14.63588237762451 L 1.08642580016749e-05 14.63588237762451 L -2.999989032745361 14.63588237762451 L -2.999989032745361 11.63588237762451 L -2.999989032745361 0.194944828748703 L -2.999989032745361 -2.805055141448975 L 1.08642580016749e-05 -2.805055141448975 L 33.31901931762695 -2.805055141448975 L 33.66504287719727 -2.89777398109436 L 36.56282424926758 -3.674242734909058 L 37.33929061889648 -0.7764614224433899 L 52.12343597412109 54.39884948730469 L 78.34220123291016 54.39884948730469 L 225.0003814697266 54.39884948730469 L 228.7510070800781 54.39884948730469 L 227.9271087646484 58.0578498840332 L 203.0587310791016 168.5021667480469 L 202.5316314697266 170.8431701660156 L 200.1320037841797 170.8431701660156 L 83.32447814941406 170.8431701660156 L 84.20906066894531 174.1444396972656 L 151.7797546386719 174.1444396972656 L 154.7797546386719 174.1444396972656 L 154.7797546386719 174.4631805419922 C 158.3385925292969 175.1423797607422 161.6056060791016 176.88916015625 164.1857299804688 179.5311279296875 C 167.4651336669922 182.88916015625 169.2711944580078 187.3236083984375 169.2711944580078 192.0175628662109 C 169.2711944580078 194.4290771484375 168.7982025146484 196.7700042724609 167.8653564453125 198.9753875732422 C 166.9649810791016 201.1039733886719 165.6766357421875 203.0150451660156 164.0361328125 204.6554107666016 C 162.3956604003906 206.2957916259766 160.4845428466797 207.5840148925781 158.3558807373047 208.4843139648438 C 156.1505126953125 209.4170684814453 153.8095703125 209.8900146484375 151.3981018066406 209.8900146484375 Z" stroke="none" fill="#2d8db8"/>
      </g>
    </g>
    <g transform="matrix(1, 0, 0, 1, 52, 421.44)" filter="url(#Union_3)">
      <g id="Union_3-2" data-name="Union 3" transform="translate(107.94 159.65) rotate(-90)" fill="#1d7ca7">
        <path d="M 27.06559371948242 55.63072204589844 C 25.06505393981934 55.63072204589844 23.18424034118652 54.85166168212891 21.7696418762207 53.43706512451172 L 0.6934412717819214 32.36086273193359 C -0.07251167297363281 31.59519195556641 -0.6518175601959229 30.69525146484375 -1.028170466423035 29.68621635437012 L -1.039852857589722 29.6546745300293 L -1.055594086647034 29.61156845092773 C -1.06309986114502 29.59080505371094 -1.071076393127441 29.56845092773438 -1.078841090202332 29.54633331298828 L -1.079794049263 29.54364013671875 L -1.081605792045593 29.53842735290527 C -1.288688182830811 28.94661712646484 -1.420652866363525 28.32755661010742 -1.473452806472778 27.69951057434082 L -1.474158763885498 27.69120407104492 C -1.476241111755371 27.66599273681641 -1.477923393249512 27.64426422119141 -1.479535222053528 27.62222862243652 L -1.483464598655701 27.56613349914551 L -1.483958721160889 27.55854606628418 L -1.485017538070679 27.5423583984375 C -1.49508810043335 27.3840274810791 -1.500229358673096 27.22329902648926 -1.500229358673096 27.06559371948242 C -1.500229358673096 26.87941551208496 -1.493123412132263 26.69014549255371 -1.479088187217712 26.50301551818848 L -1.475311636924744 26.4543571472168 L -1.472911715507507 26.42558097839355 C -1.42259407043457 25.83268737792969 -1.301499962806702 25.24686431884766 -1.113029360771179 24.68463897705078 L -1.106746912002563 24.66592216491699 L -1.08745288848877 24.60964012145996 C -0.7153469920158386 23.53495788574219 -0.116064615547657 22.57915687561035 0.6934295296669006 21.76965141296387 L 21.7696418762207 0.6934398412704468 C 23.18425369262695 -0.7211601138114929 25.06505393981934 -1.500218987464905 27.06559371948242 -1.500218987464905 C 29.06624221801758 -1.500218987464905 30.94687652587891 -0.7210895419120789 32.36106491088867 0.693639874458313 C 35.28086471557617 3.613451719284058 35.28086471557617 8.364651679992676 32.36086654663086 11.28466320037842 L 24.0693244934082 19.57620429992676 L 77.58090209960938 19.57620429992676 C 81.71012115478516 19.57620429992676 85.06950378417969 22.93598175048828 85.06950378417969 27.06569862365723 C 85.06950378417969 31.19492149353027 81.71012115478516 34.55429840087891 77.58090209960938 34.55429840087891 L 24.0693244934082 34.55429840087891 L 32.36086654663086 42.84584045410156 C 33.77546310424805 44.26045227050781 34.55452346801758 46.14125061035156 34.55452346801758 48.14179229736328 C 34.55452346801758 50.14244079589844 33.77539443969727 52.02307510375977 32.36066436767578 53.43726348876953 C 30.94687652587891 54.85159301757813 29.06624221801758 55.63072204589844 27.06559371948242 55.63072204589844 Z" stroke="none"/>
        <path d="M 27.06558799743652 54.13072967529297 C 28.59840202331543 54.13072967529297 30.13110733032227 53.54595565795898 31.30020141601563 52.37639617919922 C 33.63930892944336 50.0381965637207 33.63930892944336 46.24559783935547 31.30020141601563 43.90650177001953 L 20.44800186157227 33.05430221557617 L 77.58090972900391 33.05430221557617 C 80.88840484619141 33.05430221557617 83.56951141357422 30.37319755554199 83.56951141357422 27.06570243835449 C 83.56951141357422 23.7581958770752 80.88840484619141 21.07619667053223 77.58090972900391 21.07619667053223 L 20.44800186157227 21.07619667053223 L 31.30020141601563 10.22399711608887 C 33.63930892944336 7.884903430938721 33.63930892944336 4.093196868896484 31.30020141601563 1.754103422164917 C 30.13110160827637 0.5845500826835632 28.59840202331543 -0.000226611940888688 27.06558990478516 -0.000226611940888688 C 25.53277778625488 -0.000226611940888688 23.99985504150391 0.5845500826835632 22.83030700683594 1.754103422164917 L 1.75410795211792 22.83030319213867 C 1.091654658317566 23.49274253845215 0.6169079542160034 24.27175712585449 0.3296812772750854 25.10128974914551 C 0.3244812786579132 25.11628913879395 0.3193479180335999 25.13122367858887 0.3142546117305756 25.14626312255859 C 0.3125745952129364 25.15127754211426 0.3108679354190826 25.15639686584473 0.3091745972633362 25.16140937805176 C 0.1606679260730743 25.60443687438965 0.06262793391942978 26.07028961181641 0.02169459871947765 26.55269050598145 C 0.02105459943413734 26.56015586853027 0.02046793326735497 26.56723594665527 0.01985459960997105 26.57470321655273 C 0.01876126602292061 26.58814430236816 0.0177212655544281 26.60165023803711 0.01672126539051533 26.6151294708252 C 0.005481265950948 26.76503753662109 -0.0002254007995361462 26.91534423828125 -0.0002254007995361462 27.06558418273926 C -0.0002254007995361462 27.19319725036621 0.003907932434231043 27.32067680358887 0.0120145995169878 27.44807624816895 C 0.01240126602351665 27.45423698425293 0.01280126627534628 27.46005058288574 0.0132145993411541 27.46620941162109 C 0.01424126606434584 27.48171615600586 0.01528126560151577 27.49695587158203 0.01644126512110233 27.5124626159668 C 0.0177345983684063 27.53009033203125 0.01908126659691334 27.54747581481934 0.0205212663859129 27.56507682800293 C 0.02076126635074615 27.56786346435547 0.02104126662015915 27.57106399536133 0.02128126658499241 27.57385063171387 C 0.06422793120145798 28.08479690551758 0.1714012622833252 28.57771682739258 0.3345879316329956 29.04407691955566 C 0.3351479470729828 29.04567718505859 0.3357879221439362 29.0475025177002 0.3363479375839233 29.04911613464355 C 0.3426145911216736 29.06695747375488 0.3490546047687531 29.08499717712402 0.3554812669754028 29.10275650024414 C 0.3595345914363861 29.11398315429688 0.3635079264640808 29.12482261657715 0.3676279187202454 29.13602256774902 C 0.3707879185676575 29.14462280273438 0.3740546107292175 29.15345001220703 0.3772546052932739 29.16202354431152 C 0.6681212782859802 29.94182395935059 1.127067923545837 30.67341041564941 1.75410795211792 31.30019760131836 L 22.83030700683594 52.37639617919922 C 23.99985504150391 53.54595565795898 25.53277397155762 54.13072967529297 27.06558799743652 54.13072967529297 M 27.06558799743652 57.13072967529297 C 24.66437530517578 57.13072967529297 22.40689468383789 56.19563674926758 20.70897483825684 54.49770355224609 L -0.3672120571136475 33.42151641845703 C -1.286118745803833 32.50298309326172 -1.981492042541504 31.42247581481934 -2.433572053909302 30.21046257019043 L -2.448292016983032 30.17071723937988 L -2.466238737106323 30.12153053283691 C -2.475105285644531 30.09700965881348 -2.484732151031494 30.07003593444824 -2.494105339050293 30.04336929321289 L -2.495945453643799 30.03811645507813 L -2.497771978378296 30.03286361694336 C -2.745639801025391 29.32452774047852 -2.903960943222046 28.58313369750977 -2.967665910720825 27.83111572265625 L -2.968412160873413 27.8225040435791 L -2.968958616256714 27.81610298156738 L -2.969491958618164 27.80971717834473 C -2.971611976623535 27.78371620178223 -2.973598718643188 27.75803756713867 -2.975518703460693 27.73199653625488 C -2.976998805999756 27.7121696472168 -2.978638648986816 27.68848991394043 -2.980225324630737 27.66439628601074 L -2.982092142105103 27.63602256774902 C -2.994065284729004 27.44780921936035 -3.000225305557251 27.25502395629883 -3.000225305557251 27.06558418273926 C -3.000225305557251 26.84213066101074 -2.991692066192627 26.61510276794434 -2.974878787994385 26.39082336425781 L -2.97026538848877 26.33146286010742 L -2.967345476150513 26.29648971557617 C -2.907145500183105 25.58695602416992 -2.761692047119141 24.88339614868164 -2.535265445709229 24.20792961120605 L -2.534172058105469 24.20466423034668 L -2.533078670501709 24.20139694213867 L -2.532852172851563 24.20072937011719 L -2.53027868270874 24.19303703308105 L -2.528758764266968 24.18851661682129 L -2.527225494384766 24.18398284912109 L -2.504825353622437 24.1186637878418 C -2.057878732681274 22.82785034179688 -1.338558793067932 21.6803035736084 -0.3671854138374329 20.70895767211914 L 20.70898818969727 -0.3672166168689728 C 22.40690803527832 -2.065136671066284 24.66440200805664 -3.000229835510254 27.06558799743652 -3.000229835510254 C 29.46701431274414 -3.000229835510254 31.72440147399902 -2.064990043640137 33.42193603515625 -0.3668032884597778 C 35.11944198608398 1.330690026283264 36.05453491210938 3.588063478469849 36.05453491210938 5.989049911499023 C 36.05453491210938 8.390036582946777 35.11944198608398 10.64741039276123 33.4215202331543 12.34531688690186 L 27.69064140319824 18.07619667053223 L 77.58090972900391 18.07619667053223 C 82.53723907470703 18.07619667053223 86.56951141357422 22.10887718200684 86.56951141357422 27.06570243835449 C 86.56951141357422 32.02203750610352 82.53723907470703 36.05430221557617 77.58090972900391 36.05430221557617 L 27.69064140319824 36.05430221557617 L 33.4215202331543 41.78518295288086 C 35.11944198608398 43.48308944702148 36.05453491210938 45.74058151245117 36.05453491210938 48.14178466796875 C 36.05453491210938 50.54320907592773 35.11929321289063 52.80059814453125 33.42110824584961 54.49813079833984 C 31.72442817687988 56.19549179077148 29.46702766418457 57.13072967529297 27.06558799743652 57.13072967529297 Z" stroke="none" fill="#fff"/>
      </g>
    </g>
  </g>
</svg>
